<svg xmlns="http://www.w3.org/2000/svg" version="1.1" xmlns:xlink="http://www.w3.org/1999/xlink" width="500" height="500"><svg width="500" height="500" viewBox="0 0 500 500" fill="none" xmlns="http://www.w3.org/2000/svg">
<g clip-path="url(#clip0_83_3)">
<path d="M343.593 147.687L343.593 239.185L302.711 391.033L182.011 391.033L82.6246 264.042L343.593 147.687Z" fill="#00CE89"></path>
<path d="M25.5359 187.956L216.776 247.6L113.518 367.926L25.5359 187.956Z" fill="#00CE89"></path>
<rect x="254.042" y="48.4016" width="89.5515" height="190.784" fill="#00CE89"></rect>
<rect x="191.745" y="387.14" width="27.2548" height="62.2967" fill="#00CE89"></rect>
<rect x="265.723" y="383.246" width="27.2548" height="62.2967" fill="#00CE89"></rect>
<rect x="308.552" y="247.845" width="27.2548" height="62.2967" transform="rotate(-48.2717 308.552 247.845)" fill="#00CE89"></rect>
<path d="M472.08 126.273H417.571V141.847H472.08V169.102H254.042V48.4016H472.08V126.273ZM374.742 75.6564C363.99 75.6564 355.274 84.3725 355.274 95.1242C355.274 105.876 363.99 114.592 374.742 114.592C385.494 114.592 394.21 105.876 394.21 95.1242C394.21 84.3725 385.494 75.6565 374.742 75.6564Z" fill="#00CE89"></path>
</g>
<defs>
<clipPath id="SvgjsClipPath1001">
<rect width="500" height="500" fill="white"></rect>
</clipPath>
</defs>
</svg><style>@media (prefers-color-scheme: light) { :root { filter: none; } }
@media (prefers-color-scheme: dark) { :root { filter: none; } }
</style></svg>